<svg width="33" height="32" viewBox="0 0 33 32" fill="none" xmlns="http://www.w3.org/2000/svg">
<path d="M16.9977 31.9992C25.834 31.9992 32.9973 24.8359 32.9973 15.9996C32.9973 7.16327 25.834 0 16.9977 0C8.16132 0 0.998047 7.16327 0.998047 15.9996C0.998047 24.8359 8.16132 31.9992 16.9977 31.9992Z" fill="#72F34B"/>
<path d="M26.5586 17.2875V23.8838H22.7342V17.7296C22.7342 16.1843 22.1821 15.1291 20.7974 15.1291C19.7407 15.1291 19.1129 15.8395 18.8357 16.5274C18.735 16.7733 18.7091 17.1147 18.7091 17.4595V23.8835H14.8844C14.8844 23.8835 14.9358 13.4603 14.8844 12.3814H18.7094V14.0113C18.7017 14.0242 18.6908 14.0367 18.684 14.049H18.7094V14.0113C19.2176 13.2293 20.124 12.1113 22.1561 12.1113C24.6722 12.1113 26.5586 13.7552 26.5586 17.2875ZM10.8835 6.83691C9.57529 6.83691 8.71938 7.69568 8.71938 8.82396C8.71938 9.92829 9.55048 10.8119 10.8333 10.8119H10.8582C12.1921 10.8119 13.0215 9.92829 13.0215 8.82396C12.9961 7.69568 12.1921 6.83691 10.8835 6.83691ZM8.94669 23.8838H12.7699V12.3814H8.94669V23.8838Z" fill="#080808"/>
</svg>
