<svg width="32" height="32" viewBox="0 0 32 32" fill="none" xmlns="http://www.w3.org/2000/svg">
<path d="M15.9996 32.0002C24.8359 32.0002 31.9992 24.8369 31.9992 16.0006C31.9992 7.16424 24.8359 0.000976562 15.9996 0.000976562C7.16327 0.000976562 0 7.16424 0 16.0006C0 24.8369 7.16327 32.0002 15.9996 32.0002Z" fill="#72F34B"/>
<path d="M14.4456 18.3321L21.6762 23.7912L25.3261 8.21094L6.67273 15.5483L12.3487 17.4283L22.7075 10.4799L14.4456 18.3321Z" fill="#0A0A0A"/>
<path d="M12.3491 17.4296L13.9037 23.0235L14.446 18.3334L22.7079 10.4812L12.3491 17.4296Z" fill="#0A0A0A"/>
<path d="M16.7961 20.1072L13.9038 23.0232L14.4461 18.333L16.7961 20.1072Z" fill="#0A0A0A"/>
</svg>
