<svg width="40" height="40" viewBox="0 0 40 40" fill="none" xmlns="http://www.w3.org/2000/svg">
<path d="M19.9994 39.9998C31.0447 39.9998 39.9988 31.0457 39.9988 20.0004C39.9988 8.95501 31.0447 0.000976562 19.9994 0.000976562C8.95403 0.000976562 0 8.95501 0 20.0004C0 31.0457 8.95403 39.9998 19.9994 39.9998Z" fill="#0A0A0A"/>
<path d="M18.0568 22.915L27.095 29.7389L31.6573 10.2637L8.34082 19.4353L15.4358 21.7853L28.3842 13.0999L18.0568 22.915Z" fill="white"/>
<path d="M15.4364 21.7868L17.3796 28.7791L18.0574 22.9164L28.3848 13.1013L15.4364 21.7868Z" fill="#D2D2D7"/>
<path d="M20.9951 25.1335L17.3798 28.7785L18.0576 22.9158L20.9951 25.1335Z" fill="#B9B9BE"/>
</svg>
