<svg width="32" height="32" viewBox="0 0 32 32" fill="none" xmlns="http://www.w3.org/2000/svg">
<path d="M31.9982 16.0006C31.9982 24.837 24.8351 32.0002 15.9986 32.0002C7.16218 32.0002 -0.000976562 24.837 -0.000976562 16.0006C-0.000976562 7.16413 7.16218 0.000976562 15.9986 0.000976562C24.8351 0.000976562 31.9982 7.16413 31.9982 16.0006Z" fill="#101010"/>
<path d="M31.9982 16.0006C31.9982 24.837 24.8351 32.0002 15.9986 32.0002C7.16218 32.0002 -0.000976562 24.837 -0.000976562 16.0006C-0.000976562 7.16413 7.16218 0.000976562 15.9986 0.000976562C24.8351 0.000976562 31.9982 7.16413 31.9982 16.0006Z" fill="#72F34B"/>
<path d="M12.0024 24.7549C20.1311 24.7549 24.5763 18.0205 24.5763 12.181C24.5763 11.9896 24.5724 11.7994 24.5636 11.61C25.4264 10.986 26.1764 10.2077 26.7682 9.32173C25.9762 9.67352 25.1241 9.91058 24.2301 10.0173C25.1427 9.4704 25.8431 8.6047 26.1737 7.57275C25.3195 8.07908 24.3742 8.44699 23.3676 8.64547C22.561 7.78661 21.4126 7.24927 20.1418 7.24927C17.701 7.24927 15.7218 9.22847 15.7218 11.6681C15.7218 12.015 15.7606 12.3522 15.8363 12.6759C12.1638 12.4911 8.90677 10.7323 6.72738 8.05857C6.34751 8.71163 6.12901 9.4704 6.12901 10.2797C6.12901 11.8129 6.90926 13.1666 8.09551 13.9583C7.37068 13.9361 6.68954 13.7367 6.0941 13.4054C6.09312 13.4239 6.09312 13.4425 6.09312 13.4618C6.09312 15.6023 7.61652 17.3892 9.63844 17.7942C9.26736 17.8952 8.87674 17.9497 8.47343 17.9497C8.18877 17.9497 7.91192 17.9214 7.64264 17.8701C8.20537 19.6257 9.83668 20.9035 11.7712 20.9396C10.2583 22.1249 8.35307 22.8312 6.28257 22.8312C5.92613 22.8312 5.57433 22.8109 5.22839 22.7699C7.18416 24.0233 9.50637 24.7549 12.0024 24.7549Z" fill="#0A0A0A"/>
</svg>
