<svg width="41" height="40" viewBox="0 0 41 40" fill="none" xmlns="http://www.w3.org/2000/svg">
<path d="M40.9976 20.0004C40.9976 31.0459 32.0437 39.9998 20.9982 39.9998C9.95267 39.9998 0.998779 31.0459 0.998779 20.0004C0.998779 8.95487 9.95267 0.000976562 20.9982 0.000976562C32.0437 0.000976562 40.9976 8.95487 40.9976 20.0004Z" fill="#101010"/>
<path d="M40.9976 20.0004C40.9976 31.0459 32.0437 39.9998 20.9982 39.9998C9.95267 39.9998 0.998779 31.0459 0.998779 20.0004C0.998779 8.95487 9.95267 0.000976562 20.9982 0.000976562C32.0437 0.000976562 40.9976 8.95487 40.9976 20.0004Z" fill="#0A0A0A"/>
<path d="M16.0033 30.9435C26.1642 30.9435 31.7206 22.5255 31.7206 15.2262C31.7206 14.9869 31.7158 14.7492 31.7048 14.5124C32.7832 13.7324 33.7207 12.7595 34.4604 11.6521C33.4705 12.0918 32.4054 12.3881 31.2879 12.5215C32.4286 11.8379 33.3041 10.7558 33.7173 9.46587C32.6496 10.0988 31.468 10.5587 30.2098 10.8068C29.2015 9.73319 27.766 9.06152 26.1776 9.06152C23.1265 9.06152 20.6526 11.5355 20.6526 14.585C20.6526 15.0187 20.7011 15.4401 20.7957 15.8448C16.2051 15.6138 12.1338 13.4153 9.40961 10.0732C8.93477 10.8895 8.66165 11.8379 8.66165 12.8496C8.66165 14.766 9.63696 16.4581 11.1198 17.4478C10.2137 17.42 9.36231 17.1707 8.61801 16.7566C8.61679 16.7798 8.61679 16.803 8.61679 16.8271C8.61679 19.5028 10.521 21.7363 13.0484 22.2426C12.5846 22.3689 12.0963 22.437 11.5922 22.437C11.2363 22.437 10.8903 22.4016 10.5537 22.3375C11.2571 24.5319 13.2962 26.1292 15.7143 26.1743C13.8232 27.6559 11.4417 28.5388 8.8536 28.5388C8.40805 28.5388 7.96831 28.5134 7.53589 28.4622C9.98058 30.0289 12.8833 30.9435 16.0033 30.9435Z" fill="white"/>
</svg>
